<?xml version="1.0" standalone="no"?>
<!DOCTYPE svg PUBLIC "-//W3C//DTD SVG 20010904//EN"
 "http://www.w3.org/TR/2001/REC-SVG-20010904/DTD/svg10.dtd">
<svg version="1.0" xmlns="http://www.w3.org/2000/svg"
 width="576.000000pt" height="576.000000pt" viewBox="0 0 576.000000 576.000000"
 preserveAspectRatio="xMidYMid meet">

<g transform="translate(0.000000,576.000000) scale(0.100000,-0.100000)"
fill="#000000" stroke="none">
<path d="M3210 4355 c-255 -57 -482 -216 -615 -430 -49 -78 -92 -179 -74 -173
6 2 26 -10 44 -27 75 -69 98 -85 116 -80 35 11 44 -7 15 -30 l-26 -21 16 -45
c8 -24 17 -51 19 -59 2 -8 8 -27 14 -42 6 -16 7 -29 3 -29 -4 -1 8 -4 27 -8
42 -7 52 -28 17 -37 -14 -3 -25 -13 -25 -22 0 -36 -9 -75 -19 -81 -6 -4 -18
-24 -27 -45 -16 -37 -15 -39 6 -62 l22 -23 -26 -10 c-16 -6 -35 -28 -49 -58
-14 -26 -34 -53 -45 -58 -63 -32 -66 -61 -12 -149 138 -225 367 -387 624 -441
98 -21 285 -24 377 -6 l68 13 67 -62 c111 -101 296 -179 428 -180 l39 0 -36
38 c-43 45 -92 131 -108 190 -6 24 -11 77 -11 118 l0 75 88 93 c126 132 206
277 250 452 13 53 17 110 17 239 0 155 -3 178 -27 258 -54 176 -144 324 -268
442 -129 122 -246 190 -418 242 -74 22 -109 26 -246 29 -114 3 -179 -1 -225
-11z m624 -625 c95 -24 203 -80 264 -136 l47 -43 -32 -32 -31 -32 -44 35
c-108 88 -219 128 -353 128 -134 0 -238 -36 -344 -120 l-53 -42 -29 28 c-16
15 -29 33 -29 39 0 18 71 71 153 115 143 78 301 99 451 60z m-15 -189 c63 -20
145 -67 176 -102 18 -19 18 -20 -12 -51 l-32 -31 -33 25 c-69 53 -119 71 -206
76 -102 6 -155 -8 -234 -61 l-60 -40 -31 31 -31 31 23 25 c27 28 127 84 185
102 62 19 185 17 255 -5z m-49 -182 c21 -6 56 -26 78 -44 l41 -32 -34 -33
c-32 -31 -36 -32 -53 -17 -58 53 -149 57 -218 11 l-37 -26 -30 31 c-31 30 -31
30 -11 52 51 58 174 85 264 58z m-55 -183 c58 -24 73 -84 33 -131 -41 -47
-127 -29 -142 31 -9 36 11 81 43 99 32 18 26 18 66 1z"/>
<path d="M3480 1635 c-7 -8 -9 -18 -6 -24 9 -14 41 -6 44 11 4 21 -24 30 -38
13z"/>
<path d="M3840 1515 c0 -104 3 -125 15 -125 8 0 17 12 21 28 3 15 8 33 10 40
2 8 -5 16 -16 19 -21 6 -28 47 -10 58 14 9 12 59 -2 73 -10 10 -10 15 2 22 13
8 12 10 -2 10 -16 0 -18 -13 -18 -125z"/>
<path d="M1777 1613 c-13 -13 -7 -23 16 -23 12 0 41 -9 64 -19 39 -18 53 -18
53 0 0 15 -62 41 -86 36 -13 -2 -24 0 -24 4 0 11 -14 12 -23 2z"/>
<path d="M2670 1579 c0 -6 7 -17 15 -25 13 -14 15 -13 15 10 0 16 -6 26 -15
26 -8 0 -15 -5 -15 -11z"/>
<path d="M1635 1544 c-9 -14 -14 -32 -11 -40 3 -8 2 -13 -3 -10 -14 9 -21 -60
-10 -99 6 -20 24 -50 41 -68 17 -18 25 -24 18 -15 -6 9 -9 21 -6 27 3 5 -1 22
-9 37 -17 32 -20 101 -5 124 6 9 5 17 -2 21 -7 4 -7 13 1 28 16 29 7 26 -14
-5z"/>
<path d="M1669 1543 c-13 -16 -12 -17 4 -4 9 7 17 15 17 17 0 8 -8 3 -21 -13z"/>
<path d="M2001 1514 c0 -11 3 -14 6 -6 3 7 2 16 -1 19 -3 4 -6 -2 -5 -13z"/>
<path d="M2090 1526 c0 -3 17 -10 38 -16 20 -7 47 -22 60 -33 18 -17 25 -18
35 -8 21 22 -35 61 -89 61 -24 0 -44 -2 -44 -4z"/>
<path d="M2620 1520 c0 -13 11 -13 30 0 12 8 11 10 -7 10 -13 0 -23 -4 -23
-10z"/>
<path d="M2992 1505 c6 -13 15 -22 21 -18 5 3 6 -3 2 -17 -5 -14 -3 -20 3 -16
6 3 13 0 16 -6 8 -17 -4 31 -15 60 -5 12 -15 22 -24 22 -12 0 -13 -4 -3 -25z"/>
<path d="M3366 1484 c-24 -72 -4 -89 22 -19 26 67 26 65 8 65 -8 0 -21 -21
-30 -46z"/>
<path d="M3705 1519 c18 -5 33 -5 39 1 7 7 -4 10 -29 9 -40 -1 -40 -1 -10 -10z"/>
<path d="M3912 1514 c-21 -14 -22 -41 -1 -28 5 3 7 9 4 14 -3 4 5 8 18 8 12 0
38 5 57 10 l35 10 -45 1 c-27 1 -55 -6 -68 -15z"/>
<path d="M2048 1495 c-16 -13 -28 -32 -29 -42 0 -16 -1 -16 -9 2 -6 14 -9 -5
-9 -57 -1 -57 2 -77 12 -75 7 1 15 26 18 62 9 86 21 121 38 111 4 -3 8 1 8 9
0 8 -1 15 -1 15 -1 0 -13 -12 -28 -25z"/>
<path d="M2505 1511 c3 -5 0 -11 -7 -13 -9 -3 -9 -6 0 -12 7 -4 12 -2 12 4 0
6 5 8 10 5 6 -3 10 -16 10 -27 0 -12 3 -19 6 -15 11 10 -5 54 -21 61 -9 3 -14
2 -10 -3z"/>
<path d="M3220 1439 c0 -22 23 -66 36 -66 15 0 12 24 -7 57 -7 13 -8 13 -9 0
0 -13 -1 -13 -10 0 -5 8 -10 12 -10 9z"/>
<path d="M2540 1417 c0 -9 -12 -12 -36 -10 -20 1 -44 -2 -53 -8 -12 -7 -5 -9
27 -7 l43 4 -4 -48 c-2 -26 1 -48 6 -48 5 0 7 9 4 20 -3 11 -1 18 4 14 5 -3 9
-16 9 -30 0 -14 -4 -22 -10 -19 -5 3 -10 1 -10 -4 0 -6 7 -11 15 -11 12 0 15
16 15 80 0 44 -2 80 -5 80 -3 0 -5 -6 -5 -13z"/>
<path d="M4063 1389 c-7 -7 -13 -37 -13 -66 0 -44 3 -53 18 -53 14 0 17 8 14
48 -5 83 -6 85 -19 71z"/>
<path d="M2692 1378 c-1 -10 -6 -18 -12 -18 -18 0 -11 -56 9 -74 22 -20 92
-19 99 2 2 8 -6 12 -26 10 -40 -3 -60 16 -65 60 -2 20 -4 29 -5 20z"/>
<path d="M3640 1344 c0 -47 23 -74 61 -73 15 0 19 3 9 6 -20 8 -39 34 -40 54
0 8 -7 24 -15 35 -13 18 -14 16 -15 -22z"/>
<path d="M3481 1318 c-1 -36 3 -48 14 -48 11 0 15 11 15 41 0 22 -4 38 -9 35
-5 -4 -12 0 -14 6 -3 7 -6 -8 -6 -34z"/>
<path d="M3125 1342 c-5 -4 -18 -22 -29 -40 -17 -32 -17 -34 -1 -30 10 1 24
20 31 41 7 20 12 37 11 37 -1 0 -6 -4 -12 -8z"/>
<path d="M1890 1321 c0 -6 -6 -11 -12 -11 -27 0 -88 -21 -88 -30 0 -15 48 -12
86 6 35 17 42 28 24 39 -5 3 -10 1 -10 -4z"/>
<path d="M2352 1293 c23 -24 62 -31 74 -12 4 8 -1 9 -16 4 -14 -4 -20 -3 -16
3 6 10 -16 23 -47 27 -15 1 -15 -1 5 -22z"/>
<path d="M2220 1280 c-13 -8 -12 -10 3 -10 9 0 17 5 17 10 0 12 -1 12 -20 0z"/>
<path d="M2780 984 l0 -126 -30 26 c-54 45 -140 58 -213 32 -101 -36 -160
-129 -160 -250 0 -81 16 -126 63 -180 38 -43 71 -62 134 -76 58 -13 136 3 175
36 37 31 41 30 41 -6 l0 -30 64 0 64 0 4 118 c1 64 2 222 0 350 l-4 232 -69 0
-69 0 0 -126z m-62 -194 c43 -26 65 -80 60 -142 -6 -59 -30 -96 -75 -115 -97
-40 -197 48 -179 159 9 55 21 76 59 98 41 26 93 25 135 0z"/>
<path d="M1645 1080 c-3 -6 -3 -115 1 -242 l7 -232 31 -61 c40 -76 97 -117
191 -135 119 -22 235 9 301 82 66 73 68 86 72 355 l4 242 -71 -1 -71 -1 -1
-121 c-4 -275 -7 -313 -27 -358 -46 -105 -212 -106 -266 -2 -19 35 -21 60 -24
262 l-3 222 -69 0 c-38 0 -72 -5 -75 -10z"/>
<path d="M3180 916 c-67 -16 -106 -31 -114 -45 -5 -8 24 -82 39 -99 2 -2 15 4
29 13 39 26 144 32 185 11 27 -15 51 -49 51 -75 0 -4 -47 -11 -105 -14 -152
-9 -211 -39 -230 -120 -12 -45 4 -95 40 -131 64 -64 195 -69 272 -10 l33 25 0
-30 0 -31 66 0 65 0 -3 193 c-3 191 -3 194 -30 234 -50 75 -176 109 -298 79z
m190 -315 c0 -62 -77 -114 -144 -97 -59 15 -74 70 -30 105 22 17 41 21 100 21
l74 0 0 -29z"/>
<path d="M3580 917 c0 -10 70 -180 134 -324 42 -95 76 -179 76 -188 0 -9 -11
-27 -25 -40 -28 -29 -71 -33 -115 -10 -28 15 -28 15 -54 -31 -14 -26 -26 -50
-26 -54 0 -18 88 -45 150 -45 77 0 123 24 162 82 26 40 258 588 258 610 0 2
-31 3 -68 3 l-68 0 -65 -170 c-35 -93 -67 -170 -70 -170 -3 0 -29 57 -57 128
-28 70 -59 146 -69 169 l-18 43 -72 0 c-40 0 -73 -1 -73 -3z"/>
</g>
</svg>
